<svg width="64" height="65" viewBox="0 0 64 65" fill="none" xmlns="http://www.w3.org/2000/svg">
<rect y="0.600025" width="64" height="64" rx="8" fill="#EFF4FF"/>
<path d="M36.1451 45.4588C32.327 44.0407 28.3997 43.8225 24.7997 44.8043C22.2906 45.4589 19.8906 46.768 17.7088 48.4043L16.1815 49.7134L15.7451 50.1498L16.7269 51.0225C16.836 51.0225 16.836 51.1316 16.9451 51.2407C17.1633 51.4589 17.3815 51.568 17.7088 51.7861L18.3633 52.2225L19.0178 51.677C19.1269 51.568 19.3451 51.3498 19.5633 51.2407C21.5269 49.6043 23.7087 48.5134 25.9997 47.968C28.9451 47.2043 32.1087 47.3134 35.2724 48.5134C37.8906 49.4952 43.236 50.6952 49.6724 47.968L49.8906 47.8589L50.2179 47.5316C50.2179 47.4225 50.327 47.4225 50.436 47.3134C50.9815 46.6589 51.527 46.0043 51.9633 45.2407L54.1451 41.8589L50.6542 43.8225C45.5269 46.6588 40.836 47.2043 36.1451 45.4588Z" fill="#155EEF"/>
<path d="M21.1995 33.6774C24.1449 32.9137 27.3086 33.0228 30.4722 34.2228C33.9631 35.5319 42.9086 37.3865 52.9449 28.3319L54.5813 26.6955L54.6904 26.5865L55.1268 26.1501L54.9086 25.6046C54.7995 25.1683 54.5813 24.6228 54.3631 24.0774L53.8176 22.5501L52.7267 23.641C52.6176 23.8592 52.3995 23.9683 52.1813 24.1864C47.3813 29.0955 39.9631 34.1137 31.454 31.0592C27.6358 29.641 23.7086 29.4228 20.1086 30.4046C16.6177 31.3865 13.5631 33.241 10.7267 35.8592V35.7501L9.09038 37.4955C9.09038 37.6046 8.98131 37.6046 8.87221 37.7137L8.54492 38.041L8.65402 38.4774C8.76311 39.0228 8.98129 39.5683 9.09038 40.1137L9.74493 41.8592L10.8358 40.441C10.9449 40.2228 11.1631 40.1137 11.2722 39.8956C13.5631 37.8228 16.7267 34.8774 21.1995 33.6774Z" fill="#155EEF"/>
<path d="M10.6182 31.7138C13.1273 29.0956 15.9636 27.4592 19.0182 26.5865C21.9636 25.8229 25.1273 25.932 28.2909 27.132C38.1091 30.732 46.6182 24.841 50.3273 21.6774L51.7455 20.2592L52.2909 19.8229L51.8546 19.1683C51.5273 18.8411 51.3091 18.4047 50.9818 17.9683L50.3273 17.0956L49.5636 17.8592C49.4546 17.9683 49.2364 18.1865 49.1273 18.2956C44.5455 22.6592 37.4546 27.132 29.3818 24.0774C25.5636 22.6592 21.6364 22.4411 18.0364 23.4229C15.7455 24.0774 13.5636 25.1683 11.3818 26.5865L9.09091 28.4411C8.87273 28.6592 8.76364 28.7683 8.54545 28.9865L8.32729 29.2047V29.532C8.2182 30.2956 8.21819 31.0592 8.1091 31.7138L8 34.4411L9.85456 32.4774C10.0727 32.2592 10.2909 31.932 10.6182 31.7138Z" fill="#155EEF"/>
<path d="M39.3091 52.8772L39.091 53.5318L39.3091 52.8772C38.9819 52.7682 38.7637 52.659 38.4364 52.55C34.6183 51.1318 30.691 50.9136 27.091 51.8954C26.3273 52.1136 25.5637 52.3318 24.8001 52.659L22.1819 53.8591L21.5273 54.1863L23.7092 54.95C24.3637 55.1681 25.0182 55.3863 25.6728 55.6045L26 55.7136L26.3273 55.6045C26.6546 55.4954 26.9819 55.2772 27.3091 55.2772C27.5273 55.2772 27.7455 55.1682 27.9637 55.0591C30.5819 54.4045 33.4182 54.4045 36.4728 55.3863C36.8 55.4954 37.0183 55.6045 37.3455 55.7136L37.891 55.9318L38.2182 55.8227C38.9819 55.6045 39.8546 55.3863 40.5092 55.0591L43.5637 53.9682L40.4001 53.2045C40.0728 53.0954 39.6364 52.9863 39.3091 52.8772Z" fill="#155EEF"/>
<path d="M55.9996 30.2957L54.3632 31.932C54.145 32.1502 53.9269 32.3684 53.7087 32.5866C49.236 36.8411 42.036 41.4229 33.9632 38.3684C30.1451 36.9502 26.2178 36.7321 22.6178 37.7139C19.236 38.6957 16.1814 40.4411 13.4541 43.0593L12.036 44.5866L11.5996 45.132L12.036 45.7866C12.3632 46.223 12.5814 46.5502 12.7996 46.9866L13.4541 47.9684L14.2178 46.9866C14.3269 46.8775 14.5451 46.6593 14.6541 46.5502C17.2723 43.7139 20.1087 41.9684 23.3814 41.0957C26.3269 40.332 29.4905 40.4411 32.6541 41.6411C35.3814 42.6229 38.2178 42.9502 41.0542 42.623C46.0723 42.0775 51.0905 39.2412 54.7996 36.0775C55.0178 35.8593 55.236 35.7502 55.4541 35.5321L55.7814 35.2048V34.8775C55.7814 34.223 55.8905 33.4593 55.8905 32.8048L55.9996 30.2957Z" fill="#155EEF"/>
<path d="M14.5454 20.2595L14.2181 19.6049L14.5454 20.2595C15.1999 19.9322 15.9636 19.714 16.6181 19.4958C19.5636 18.7322 22.7272 18.8413 25.8909 20.0413C27.9636 20.8049 30.0363 21.1322 32.3272 21.1322C36.909 21.1322 41.4908 19.4959 45.7454 16.3322L47.3818 15.0231L47.9272 14.5868L46.9454 13.8231C46.6181 13.4958 46.1818 13.1686 45.7454 12.9504L45.0908 12.514L44.5454 12.9504C44.3272 13.0595 44.2181 13.2777 43.9999 13.3868C38.2181 17.7504 32.4363 18.9504 26.9818 16.8777C23.0545 15.4595 19.1272 15.1322 15.1999 16.3322C14.8727 16.4413 14.5454 16.5504 14.109 16.6595L13.8909 16.7686L13.5636 17.0958C13.5636 17.2049 13.4545 17.2049 13.3454 17.314C12.9091 17.9686 12.3636 18.514 11.9272 19.1686L9.85449 22.3322L13.2363 20.5868C13.7818 20.5868 14.2181 20.3686 14.5454 20.2595Z" fill="#155EEF"/>
<path d="M23.4909 12.8409L23.8182 12.95C25.2364 13.4954 27.4182 14.0409 30.1455 14.0409C32.9818 14.0409 35.7091 13.3863 38.4364 12.2954L41.8182 10.659L39.5273 9.89543C38.8728 9.67725 38.2182 9.45907 37.4545 9.34998H37.1273L36.8 9.45904C36.4728 9.56813 36.1455 9.78634 35.8182 9.89543C32.5455 11.0954 29.2727 11.3136 26.1091 10.4409C25.7818 10.3318 25.4546 10.2227 25.1273 10.1136L24.8 10.0045L24.4727 10.1136C23.8182 10.3318 23.1637 10.55 22.5091 10.8772L20 11.9682L22.6182 12.7318C22.8364 12.6227 23.1636 12.7318 23.4909 12.8409Z" fill="#155EEF"/>
</svg>
