<svg width="64" height="65" viewBox="0 0 64 65" fill="none" xmlns="http://www.w3.org/2000/svg">
<rect y="0.400024" width="64" height="64" rx="8" fill="#E0EAFF"/>
<path d="M32 8.40002C18.7451 8.40002 8 19.1452 8 32.4C8 45.6549 18.7451 56.4 32 56.4C43.892 56.4 53.7639 47.7509 55.6682 36.4H55.4959C53.7198 43.3009 47.4553 48.4 40 48.4C31.1635 48.4 24 41.2366 24 32.4C24 23.5635 31.1635 16.4 40 16.4C47.4553 16.4 53.7198 21.4991 55.4959 28.4H55.6682C53.7639 17.0492 43.892 8.40002 32 8.40002Z" fill="#A4BCFD"/>
<path d="M8 32.4C8 19.1452 18.7452 8.40002 32 8.40002C43.892 8.40002 53.7639 17.0492 55.6682 28.4H39.4959C37.7198 21.4991 31.4554 16.4 24 16.4C15.1634 16.4 8 23.5635 8 32.4Z" fill="#3538CD"/>
<path d="M8 32.4C8 45.6549 18.7452 56.4 32 56.4C43.892 56.4 53.7639 47.7509 55.6682 36.4H39.4959C37.7198 43.3009 31.4554 48.4 24 48.4C15.1634 48.4 8 41.2366 8 32.4Z" fill="#3538CD"/>
</svg>
