<svg width="64" height="65" viewBox="0 0 64 65" fill="none" xmlns="http://www.w3.org/2000/svg">
<rect y="0.600037" width="64" height="64" rx="8" fill="#EBE9FE"/>
<path fill-rule="evenodd" clip-rule="evenodd" d="M32 46.2C39.5111 46.2 45.6 40.1111 45.6 32.6C45.6 25.0889 39.5111 19 32 19C24.4889 19 18.4 25.0889 18.4 32.6C18.4 40.1111 24.4889 46.2 32 46.2ZM32 56.6C45.2548 56.6 56 45.8548 56 32.6C56 19.3452 45.2548 8.60004 32 8.60004C18.7452 8.60004 8 19.3452 8 32.6C8 45.8548 18.7452 56.6 32 56.6Z" fill="#6938EF"/>
<path d="M32.2743 33.1254C34.7737 30.626 38.8259 30.626 41.3253 33.1254L53.7704 45.5704C56.2697 48.0698 56.2697 52.1221 53.7704 54.6214C51.271 57.1208 47.2188 57.1208 44.7194 54.6214L32.2743 42.1764C29.775 39.677 29.775 35.6247 32.2743 33.1254Z" fill="#F670C7"/>
<path d="M35.7686 45.671L43.6726 53.575C47.4637 51.4607 50.6222 48.3483 52.7927 44.5933L44.9535 36.754C43.5765 41.0515 40.1203 44.4185 35.7686 45.671Z" fill="#6519BA"/>
</svg>
