<svg width="64" height="65" viewBox="0 0 64 65" fill="none" xmlns="http://www.w3.org/2000/svg">
<rect y="0.799973" width="64" height="64" rx="8" fill="#181D27"/>
<path fill-rule="evenodd" clip-rule="evenodd" d="M32.8348 10.3796C32.2839 10.2663 31.7156 10.2663 31.1647 10.3796C30.5278 10.5106 29.9586 10.8294 29.506 11.0829L29.3827 11.1518L14.045 19.6727C14.0026 19.6963 13.9589 19.7204 13.9142 19.745C13.4351 20.0089 12.8328 20.3406 12.3702 20.8426C11.9703 21.2766 11.6676 21.7909 11.4825 22.3513C11.2684 22.9994 11.2709 23.6871 11.2729 24.234C11.273 24.2851 11.2732 24.335 11.2732 24.3835V41.2074C11.2732 41.2559 11.273 41.3058 11.2729 41.3569C11.2709 41.9038 11.2684 42.5915 11.4825 43.2396C11.6676 43.7999 11.9703 44.3143 12.3702 44.7483C12.8328 45.2502 13.4351 45.582 13.9142 45.8459C13.9589 45.8705 14.0026 45.8946 14.045 45.9181L29.3827 54.439L29.506 54.5079C29.9586 54.7614 30.5278 55.0802 31.1647 55.2112C31.7156 55.3245 32.2839 55.3245 32.8348 55.2112C33.4717 55.0802 34.0409 54.7614 34.4935 54.5079L34.6168 54.439L49.9544 45.9181C49.9732 45.9077 49.9922 45.8972 50.0114 45.8866C50.0357 45.8732 50.0603 45.8596 50.0853 45.8459C50.5643 45.582 51.1667 45.2502 51.6293 44.7483C52.0292 44.3143 52.3318 43.7999 52.517 43.2396C52.7311 42.5915 52.7286 41.9038 52.7266 41.3569C52.7264 41.3058 52.7262 41.2559 52.7262 41.2074V24.3835C52.7262 24.335 52.7264 24.2851 52.7266 24.234C52.7286 23.6871 52.7311 22.9994 52.517 22.3513C52.3318 21.7909 52.0292 21.2766 51.6293 20.8426C51.1667 20.3406 50.5643 20.0089 50.0853 19.745L50.0836 19.7441C50.0394 19.7197 49.9963 19.696 49.9544 19.6727L34.6168 11.1518L34.4935 11.0829C34.0409 10.8294 33.4717 10.5106 32.8348 10.3796ZM31.3958 14.7755C31.7099 14.601 31.8702 14.5128 31.9898 14.4551L31.9997 14.4504L32.0096 14.4551C32.1292 14.5128 32.2896 14.601 32.6037 14.7755L46.3857 22.4321L31.9997 30.4243L17.6137 22.4322L31.3958 14.7755ZM15.4185 25.9547L29.927 34.0149L29.9271 49.9994L16.0582 42.2945C15.7267 42.1103 15.5574 42.0153 15.4386 41.9396L15.4286 41.9332L15.4279 41.9213C15.4194 41.7808 15.4185 41.5867 15.4185 41.2074V25.9547Z" fill="white"/>
</svg>
