<svg width="94" height="39" viewBox="0 0 94 39" fill="none" xmlns="http://www.w3.org/2000/svg">
<path d="M35.6835 19.7045C35.6835 29.1002 28.0279 36.725 18.5742 36.725C9.12054 36.725 1.46494 29.1002 1.46494 19.7045C1.46494 10.3089 9.12054 2.68406 18.5742 2.68406C28.0279 2.68406 35.6835 10.3089 35.6835 19.7045Z" stroke="#2563EB" stroke-width="1.92988"/>
<path d="M25.4425 26.5388C22.0141 29.9503 18.121 32.1872 14.6365 33.0788C11.1276 33.9767 8.22357 33.4785 6.47798 31.7415C4.73239 30.0044 4.23173 27.1146 5.134 23.623C6.03002 20.1556 8.27796 16.2817 11.7063 12.8702C15.1347 9.45864 19.0278 7.22175 22.5123 6.33014C26.0211 5.43229 28.9252 5.93049 30.6708 7.66751C32.4164 9.40452 32.917 12.2943 32.0148 15.7859C31.1188 19.2533 28.8708 23.1273 25.4425 26.5388Z" stroke="#2563EB" stroke-width="1.92988"/>
<path d="M25.4427 12.8702C28.8711 16.2817 31.119 20.1556 32.015 23.623C32.9173 27.1146 32.4166 30.0044 30.6711 31.7415C28.9255 33.4785 26.0214 33.9767 22.5125 33.0788C19.028 32.1872 15.135 29.9503 11.7066 26.5388C8.27821 23.1273 6.03028 19.2533 5.13426 15.7859C4.23199 12.2943 4.73264 9.40453 6.47824 7.66752C8.22383 5.9305 11.1279 5.4323 14.6367 6.33015C18.1213 7.22176 22.0143 9.45865 25.4427 12.8702Z" stroke="#2563EB" stroke-width="1.92988"/>
<path d="M49.1484 26.5L44.0284 12.3H47.1684L50.9484 23.08L54.7284 12.3H57.8684L52.7284 26.5H49.1484ZM62.4027 26.74C61.3093 26.74 60.356 26.5133 59.5427 26.06C58.7293 25.5933 58.096 24.94 57.6427 24.1C57.1893 23.26 56.9627 22.2733 56.9627 21.14C56.9627 20.0067 57.1893 19.0267 57.6427 18.2C58.096 17.36 58.7293 16.7067 59.5427 16.24C60.356 15.7733 61.3093 15.54 62.4027 15.54C63.496 15.54 64.4493 15.7733 65.2627 16.24C66.076 16.7067 66.7093 17.36 67.1627 18.2C67.616 19.0267 67.8427 20.0067 67.8427 21.14C67.8427 22.2733 67.616 23.26 67.1627 24.1C66.7093 24.94 66.076 25.5933 65.2627 26.06C64.4493 26.5133 63.496 26.74 62.4027 26.74ZM62.4027 24.44C63.1493 24.44 63.7293 24.1533 64.1427 23.58C64.556 22.9933 64.7627 22.18 64.7627 21.14C64.7627 20.1 64.556 19.2933 64.1427 18.72C63.7293 18.1333 63.1493 17.84 62.4027 17.84C61.656 17.84 61.076 18.1333 60.6627 18.72C60.2493 19.2933 60.0427 20.1 60.0427 21.14C60.0427 22.18 60.2493 22.9933 60.6627 23.58C61.076 24.1533 61.656 24.44 62.4027 24.44ZM67.2364 26.5L71.0564 21.06L67.3364 15.78H70.5164L72.8164 19.22L75.0364 15.78H78.2964L74.5964 21.08L78.3964 26.5H75.2164L72.8564 22.86L70.4764 26.5H67.2364ZM78.6481 26.5V15.78H81.6481V26.5H78.6481ZM78.5881 14.46V12.06H81.6881V14.46H78.5881ZM86.2578 26.74C85.1511 26.74 84.2445 26.4867 83.5378 25.98C82.8445 25.46 82.4978 24.74 82.4978 23.82C82.4978 22.8733 82.7911 22.1467 83.3778 21.64C83.9778 21.12 84.8578 20.74 86.0178 20.5L89.4778 19.82C89.4778 19.1267 89.3178 18.6067 88.9978 18.26C88.6911 17.9 88.2445 17.72 87.6578 17.72C87.0845 17.72 86.6378 17.8533 86.3178 18.12C85.9978 18.3733 85.7911 18.7533 85.6978 19.26L82.6778 19.12C82.8778 17.9467 83.4045 17.06 84.2578 16.46C85.1245 15.8467 86.2578 15.54 87.6578 15.54C89.2578 15.54 90.4578 15.92 91.2578 16.68C92.0711 17.44 92.4778 18.5533 92.4778 20.02V23.68C92.4778 23.9867 92.5245 24.1933 92.6178 24.3C92.7245 24.3933 92.8778 24.44 93.0778 24.44H93.3778V26.5C93.2845 26.5267 93.1311 26.5533 92.9178 26.58C92.7178 26.6067 92.5178 26.62 92.3178 26.62C91.8911 26.62 91.4911 26.5467 91.1178 26.4C90.7578 26.2533 90.4645 26.0067 90.2378 25.66C90.0111 25.3 89.8978 24.7933 89.8978 24.14L90.1578 24.34C90.0245 24.82 89.7845 25.24 89.4378 25.6C89.1045 25.96 88.6645 26.24 88.1178 26.44C87.5845 26.64 86.9645 26.74 86.2578 26.74ZM86.9778 24.68C87.4711 24.68 87.9045 24.5867 88.2778 24.4C88.6511 24.2 88.9445 23.9133 89.1578 23.54C89.3711 23.1667 89.4778 22.7267 89.4778 22.22V21.7L87.0378 22.22C86.5578 22.3133 86.1911 22.4733 85.9378 22.7C85.6978 22.9133 85.5778 23.1933 85.5778 23.54C85.5778 23.9 85.6978 24.18 85.9378 24.38C86.1778 24.58 86.5245 24.68 86.9778 24.68Z" fill="white"/>
</svg>
