<svg width="64" height="64" viewBox="0 0 64 64" fill="none" xmlns="http://www.w3.org/2000/svg">
<rect width="64" height="64" rx="8" fill="white"/>
<path d="M24.1214 27.036C30.4061 24.0304 35.3245 18.9298 38.148 12.5541C36.3264 10.6414 33.9582 9.27514 31.408 8.45541L30.0417 8C29.9507 8.18216 29.8596 8.45542 29.8596 8.63758C27.6736 14.8311 23.2106 19.8406 17.1992 22.6641C13.0095 24.6679 9.91271 28.3112 8.45541 32.6831L8 34.0493C8.18216 34.1404 8.45541 34.2315 8.63758 34.2315C10.3681 34.8691 12.0987 35.6888 13.7381 36.6907C16.0152 32.592 19.6584 29.1309 24.1214 27.036Z" fill="#087443"/>
<path d="M50.5348 27.4004C47.1648 32.501 42.5196 36.5996 36.7815 39.3321C32.1363 41.518 28.5841 45.6167 26.9447 50.5351L26.4893 52.0835C28.2198 53.6319 30.3147 54.816 32.5917 55.5446L33.9579 56C34.049 55.8179 34.1401 55.5446 34.1401 55.3624C36.3261 49.1689 40.7891 44.1594 46.8005 41.3359C50.9902 39.3321 54.1781 35.6888 55.5443 31.3169L55.9997 29.9507C54.087 29.4042 52.2653 28.4934 50.5348 27.4004Z" fill="#16B364"/>
<path d="M22.8457 47.3471C25.1227 41.8822 29.3125 37.4192 34.6863 34.8689C39.6047 32.5008 43.7034 28.8575 46.5269 24.3945C44.432 22.3907 42.7015 20.1137 41.4263 17.3812C38.0563 23.5748 32.7736 28.5843 26.3068 31.681C22.5724 33.4116 19.5667 36.4173 17.7451 40.0606C19.7489 41.9733 21.3884 44.3414 22.6635 46.9827C22.6635 46.9827 22.7546 47.1649 22.8457 47.3471Z" fill="#099250"/>
</svg>
