<svg width="64" height="65" viewBox="0 0 64 65" fill="none" xmlns="http://www.w3.org/2000/svg">
<rect y="0.200012" width="64" height="64" rx="8" fill="#EFF4FF"/>
<path d="M22.8155 10.0269C25.7274 8.82086 28.8483 8.20001 32 8.20001V20.2C30.4241 20.2 28.8637 20.5104 27.4078 21.1135C25.9519 21.7165 24.629 22.6004 23.5147 23.7147C22.4004 24.829 21.5165 26.1519 20.9135 27.6078C20.3104 29.0637 20 30.6241 20 32.2H8C8 29.0483 8.62085 25.9274 9.82688 23.0156C11.0331 20.1037 12.8008 17.4581 15.0294 15.2294C17.2581 13.0008 19.9037 11.2331 22.8155 10.0269Z" fill="#155EEF"/>
<path d="M8 32.2C8 35.3517 8.62085 38.4727 9.82688 41.3845C11.0331 44.2963 12.8008 46.9419 15.0294 49.1706C17.2581 51.3992 19.9037 53.167 22.8155 54.3731C25.7274 55.5792 28.8483 56.2 32 56.2C35.1517 56.2 38.2726 55.5792 41.1845 54.3731C44.0963 53.167 46.7419 51.3992 48.9706 49.1706C51.1992 46.9419 52.9669 44.2963 54.1731 41.3845C55.3792 38.4727 56 35.3517 56 32.2H44C44 33.7759 43.6896 35.3363 43.0865 36.7922C42.4835 38.2481 41.5996 39.571 40.4853 40.6853C39.371 41.7996 38.0481 42.6835 36.5922 43.2865C35.1363 43.8897 33.5759 44.2 32 44.2C30.4241 44.2 28.8637 43.8897 27.4078 43.2865C25.9519 42.6835 24.629 41.7996 23.5147 40.6853C22.4004 39.571 21.5165 38.2481 20.9135 36.7922C20.3104 35.3363 20 33.7759 20 32.2H8Z" fill="#84ADFF"/>
<path d="M32.0006 24.5637C27.7832 24.5637 24.3643 27.9826 24.3643 32.2H39.637C39.637 27.9826 36.2181 24.5637 32.0006 24.5637Z" fill="#84ADFF"/>
<path d="M32.0006 39.8364C27.7832 39.8364 24.3643 36.4174 24.3643 32.2H39.637C39.637 36.4174 36.2181 39.8364 32.0006 39.8364Z" fill="#155EEF"/>
</svg>
