<svg width="64" height="65" viewBox="0 0 64 65" fill="none" xmlns="http://www.w3.org/2000/svg">
<rect y="0.199951" width="64" height="64" rx="8" fill="#6927DA"/>
<circle cx="32" cy="33.2726" r="22.3636" stroke="white" stroke-width="3.27273"/>
<path d="M40.8709 42.1436C36.3552 46.6594 31.2393 49.6072 26.6833 50.7788C22.0861 51.9609 18.3807 51.2804 16.1864 49.0861C13.9921 46.8919 13.3116 43.1865 14.4938 38.5893C15.6653 34.0332 18.6132 28.9174 23.1289 24.4017C27.6446 19.886 32.7605 16.9381 37.3165 15.7666C41.9137 14.5844 45.6191 15.2649 47.8134 17.4592C50.0076 19.6535 50.6881 23.3589 49.506 27.9561C48.3344 32.5121 45.3866 37.6279 40.8709 42.1436Z" stroke="white" stroke-width="3.27273"/>
<path d="M40.8716 24.4017C45.3873 28.9174 48.3351 34.0333 49.5067 38.5893C50.6888 43.1865 50.0083 46.8919 47.8141 49.0862C45.6198 51.2804 41.9144 51.9609 37.3172 50.7788C32.7611 49.6073 27.6453 46.6594 23.1296 42.1437C18.6139 37.628 15.666 32.5121 14.4945 27.9561C13.3123 23.3589 13.9928 19.6535 16.1871 17.4592C18.3814 15.265 22.0868 14.5845 26.684 15.7666C31.24 16.9382 36.3558 19.886 40.8716 24.4017Z" stroke="white" stroke-width="3.27273"/>
</svg>
