<svg width="20" height="16" viewBox="0 0 20 16" fill="none" xmlns="http://www.w3.org/2000/svg">
<path d="M10.138 0.660889C10.6268 0.66358 11.8499 0.675405 13.1493 0.727455L13.6101 0.747545C14.9184 0.809489 16.2257 0.915311 16.8741 1.09609C17.7389 1.33905 18.4186 2.04796 18.6484 2.94657C19.0142 4.37353 19.06 7.15864 19.0656 7.83263L19.0665 7.9723V7.9821C19.0665 7.9821 19.0665 7.98548 19.0665 7.99198L19.0656 8.13165C19.06 8.80564 19.0142 11.5908 18.6484 13.0177C18.4154 13.9196 17.7357 14.6286 16.8741 14.8682C16.2257 15.049 14.9184 15.1548 13.6101 15.2167L13.1493 15.2368C11.8499 15.2888 10.6268 15.3006 10.138 15.3034L9.92344 15.3041H9.91392C9.91392 15.3041 9.91072 15.3041 9.9044 15.3041L9.69005 15.3034C8.65545 15.2977 4.32961 15.251 2.95379 14.8682C2.08896 14.6252 1.40922 13.9163 1.17944 13.0177C0.813644 11.5908 0.767918 8.80564 0.762207 8.13165V7.83263C0.767918 7.15864 0.813644 4.37353 1.17944 2.94657C1.4124 2.04462 2.09214 1.33572 2.95379 1.09609C4.32961 0.713269 8.65545 0.666582 9.69005 0.660889H10.138ZM8.08342 4.77874V11.1855L13.5749 7.9821L8.08342 4.77874Z" fill="#919191"/>
</svg>
